<svg width="31" height="30" viewBox="0 0 31 30" fill="none" xmlns="http://www.w3.org/2000/svg">
<g clip-path="url(#clip0_1_2679)">
<path fill-rule="evenodd" clip-rule="evenodd" d="M2.70445 14.1167C10.4563 10.7393 15.6254 8.51274 18.2118 7.43697C25.5964 4.36545 27.1309 3.83189 28.1311 3.81427C28.351 3.8104 28.8429 3.86492 29.1615 4.12343C29.4305 4.34172 29.5045 4.63659 29.5399 4.84355C29.5753 5.05051 29.6194 5.52197 29.5844 5.89036C29.1842 10.095 27.4526 20.2987 26.5717 25.008C26.199 27.0007 25.465 27.6688 24.7545 27.7342C23.2103 27.8763 22.0377 26.7137 20.542 25.7333C18.2017 24.1992 16.8795 23.2442 14.6078 21.7471C11.9824 20.017 13.6843 19.0662 15.1805 17.5121C15.5721 17.1055 22.3759 10.9169 22.5075 10.3555C22.524 10.2853 22.5393 10.0236 22.3838 9.88539C22.2283 9.74719 21.9989 9.79445 21.8333 9.83203C21.5985 9.88531 17.8598 12.3565 10.617 17.2456C9.55573 17.9743 8.5945 18.3294 7.73326 18.3108C6.78382 18.2902 4.95748 17.7739 3.59978 17.3326C1.93451 16.7913 0.610985 16.5051 0.726234 15.5858C0.786263 15.1069 1.44567 14.6172 2.70445 14.1167Z" fill="white"/>
</g>
<defs>
<clipPath id="clip0_1_2679">
<rect width="30" height="30" fill="white" transform="translate(0.158203)"/>
</clipPath>
</defs>
</svg>
