<svg width="31" height="30" viewBox="0 0 31 30" fill="none" xmlns="http://www.w3.org/2000/svg">
<g clip-path="url(#clip0_1_2678)">
<path d="M26.4795 8.97594C26.4911 9.23994 26.4911 9.49194 26.4911 9.75594C26.5026 17.76 20.6221 27 9.86799 27C6.69618 27 3.58225 26.052 0.908203 24.276C1.37124 24.336 1.83428 24.36 2.29732 24.36C4.92506 24.36 7.48335 23.448 9.55544 21.756C7.05503 21.708 4.8556 20.016 4.09159 17.544C4.97136 17.724 5.87429 17.688 6.73091 17.436C4.01056 16.884 2.05422 14.4 2.04265 11.508C2.04265 11.484 2.04265 11.46 2.04265 11.436C2.85296 11.904 3.76746 12.168 4.69354 12.192C2.13525 10.4159 1.33651 6.87594 2.88769 4.10393C5.86271 7.89594 10.2384 10.1879 14.9383 10.4399C14.4636 8.33994 15.1119 6.13193 16.6283 4.64393C18.9783 2.35192 22.6826 2.47192 24.9052 4.90793C26.2132 4.64393 27.475 4.13993 28.621 3.43192C28.1812 4.83593 27.2667 6.02393 26.0512 6.77994C27.2088 6.63593 28.3432 6.31193 29.4082 5.83193C28.621 7.05594 27.6255 8.11194 26.4795 8.97594Z" fill="white"/>
</g>
<defs>
<clipPath id="clip0_1_2678">
<rect width="30" height="30" fill="white" transform="translate(0.158203)"/>
</clipPath>
</defs>
</svg>
