<svg width="54" height="32" viewBox="0 0 54 32" fill="none" xmlns="http://www.w3.org/2000/svg">
<g clip-path="url(#clip0_1_1657)">
<path d="M6.34501 5.98776C6.02161 5.59662 5.6139 5.28388 5.1529 5.07314C4.71518 4.87552 4.24237 4.76826 3.76251 4.7576C3.23197 4.74038 2.70339 4.83042 2.20849 5.02262C1.76379 5.19745 1.36002 5.46264 1.02257 5.80179C0.692589 6.1375 0.437405 6.53946 0.273914 6.98144C-0.0685182 7.94658 -0.0685182 9.00045 0.273914 9.96558C0.436225 10.4108 0.691457 10.8163 1.02257 11.1547C1.35966 11.4942 1.76354 11.7596 2.20849 11.9339C2.70339 12.126 3.23197 12.216 3.76251 12.1988C4.24237 12.1881 4.71518 12.0809 5.1529 11.8834C5.61407 11.6727 6.02161 11.3599 6.34501 10.9686L5.53026 10.3377C5.34593 10.6124 5.10042 10.8402 4.81309 11.0034C4.49394 11.1879 4.13068 11.2817 3.76251 11.2746C3.38252 11.2912 3.00351 11.2244 2.65206 11.079C2.33449 10.9525 2.0472 10.76 1.80899 10.5143C1.57243 10.2536 1.39248 9.9464 1.28051 9.61217C1.0391 8.8799 1.0391 8.0891 1.28051 7.35684C1.39295 7.02375 1.57289 6.71773 1.80899 6.45779C2.04305 6.20392 2.32828 6.00285 2.64567 5.86788C2.99728 5.72258 3.37628 5.65599 3.75611 5.67239C4.12445 5.66534 4.48771 5.75915 4.80686 5.94365C5.09402 6.10683 5.33953 6.33479 5.52403 6.60933L6.33878 5.97842L6.34501 5.98776ZM8.72941 12.0285H9.72669V8.39463C9.70455 7.87163 9.81263 7.35126 10.0412 6.88058C10.2059 6.56012 10.4403 6.281 10.7269 6.06353C10.9391 5.8974 11.185 5.78014 11.4472 5.71962C11.5889 5.69486 11.7316 5.67813 11.8751 5.66928C12.6092 5.66928 13.1125 5.87952 13.385 6.30018C13.6901 6.85254 13.8318 7.48049 13.7939 8.11075V12.0285H14.7912V7.53035C14.8396 6.78956 14.6083 6.05763 14.1431 5.48002C13.7048 5.00885 13.0328 4.77334 12.1268 4.77334C11.8895 4.774 11.6537 4.80696 11.4252 4.87125C11.1912 4.93521 10.9654 5.02623 10.7522 5.14251C10.5444 5.25633 10.352 5.39622 10.1797 5.55891C10.014 5.71389 9.872 5.89248 9.75802 6.08879H9.72669V0.581177H8.72941V12.0285ZM22.7276 8.50188V9.01602C22.7293 9.31631 22.6858 9.61512 22.5987 9.90245C22.519 10.1714 22.3818 10.4199 22.1966 10.6301C22.0113 10.8404 21.7823 11.0076 21.526 11.12C21.228 11.2479 20.9062 11.3102 20.5823 11.303C20.3811 11.3027 20.1805 11.2794 19.9846 11.2336C19.7943 11.1903 19.6133 11.1134 19.4499 11.0065C19.2912 10.9024 19.1596 10.7618 19.0662 10.5963C18.9656 10.4131 18.9156 10.2062 18.9214 9.99707C18.9143 9.83881 18.944 9.68121 19.0084 9.53656C19.0729 9.39191 19.1703 9.26448 19.2927 9.16428C19.5547 8.9542 19.8581 8.80151 20.1828 8.7164C20.5386 8.61865 20.9031 8.55732 21.2711 8.53337C21.6487 8.50812 21.9632 8.49549 22.215 8.49549L22.7276 8.50188ZM22.2305 7.68484C21.8112 7.68484 21.3456 7.70484 20.8339 7.74486C20.3439 7.78537 19.8616 7.89148 19.3996 8.06023C18.9722 8.20849 18.5884 8.46105 18.2827 8.79528C17.9674 9.17396 17.8076 9.65891 17.8362 10.1516C17.8288 10.4646 17.8991 10.7746 18.0407 11.0537C18.1735 11.3069 18.3592 11.5285 18.5848 11.7037C18.8164 11.8832 19.0801 12.0171 19.3619 12.0979C19.6561 12.1842 19.9611 12.2278 20.2678 12.2271C20.7714 12.2406 21.2708 12.1324 21.7241 11.9118C22.1558 11.6722 22.5136 11.3187 22.7591 10.8897H22.7906C22.7906 11.0811 22.7978 11.2777 22.8126 11.4796C22.8272 11.6815 22.8513 11.8645 22.8849 12.0285H23.8286C23.7992 11.8372 23.772 11.5921 23.7469 11.2935C23.7216 10.9948 23.7133 10.7141 23.7216 10.4514V7.29698C23.7313 6.91289 23.6595 6.5311 23.5109 6.17702C23.3812 5.88067 23.1903 5.61516 22.951 5.39802C22.712 5.18745 22.431 5.0305 22.1267 4.93734C21.8073 4.83632 21.4742 4.78515 21.1391 4.78597C19.8096 4.78597 18.8134 5.12873 18.1507 5.81442L18.7547 6.52716C19.341 5.98284 20.1135 5.68469 20.9126 5.69453C22.1205 5.69453 22.7245 6.30543 22.7245 7.52723V7.71009L22.2305 7.68484ZM27.0308 4.94374C27.0518 5.20663 27.0697 5.48412 27.0845 5.77653C27.099 6.06878 27.1064 6.31068 27.1064 6.50207V12.0285H28.1035V8.39463C28.0816 7.87163 28.1896 7.35126 28.4181 6.88058C28.5828 6.56012 28.8171 6.281 29.104 6.06353C29.316 5.8974 29.562 5.78014 29.8242 5.71962C29.9635 5.69191 30.1042 5.6719 30.2457 5.65976C30.9798 5.65976 31.4831 5.87001 31.7557 6.29067C32.0607 6.84302 32.2026 7.47098 32.1647 8.10123V12.0285H33.1618V7.53035C33.2102 6.78956 32.9789 6.05763 32.5138 5.48002C32.0797 5.00885 31.4096 4.77334 30.5037 4.77334C30.2665 4.774 30.0306 4.80696 29.8023 4.87125C29.5682 4.93521 29.3422 5.02623 29.129 5.14251C28.9186 5.25272 28.723 5.38949 28.5472 5.54939C28.3815 5.70437 28.2395 5.88297 28.1255 6.07928H28.0942C28.0942 5.88789 28.0942 5.69863 28.0942 5.51151C28.0942 5.32439 28.0816 5.13513 28.0563 4.94374H27.0308ZM37.5029 7.34421C37.6339 7.02359 37.8238 6.73036 38.0628 6.47993C38.2999 6.23245 38.5817 6.03221 38.8931 5.89002C39.218 5.7416 39.5712 5.66616 39.9281 5.66928C40.3115 5.66403 40.692 5.73931 41.0448 5.89002C41.3639 6.02696 41.6518 6.2277 41.891 6.47993C42.1236 6.72921 42.3035 7.02326 42.4194 7.34421C42.5424 7.68172 42.6041 8.03842 42.602 8.39775C42.6172 8.78019 42.5529 9.16149 42.4132 9.51754C42.2832 9.84144 42.0847 10.1332 41.8312 10.3725C41.3197 10.8533 40.6451 11.1216 39.9439 11.1231C39.5868 11.1264 39.2336 11.0509 38.9089 10.9024C38.5974 10.7603 38.3155 10.5601 38.0785 10.3124C37.8394 10.0622 37.6495 9.76895 37.5185 9.44816C37.2469 8.7733 37.2469 8.01907 37.5185 7.34421H37.5029ZM36.3767 14.2366C36.7978 14.6988 37.3126 15.0655 37.8866 15.3121C38.4864 15.5527 39.1281 15.6707 39.774 15.6592C40.4368 15.6857 41.0971 15.5618 41.7054 15.2964C42.1556 15.088 42.551 14.7769 42.8599 14.388C43.1319 14.0356 43.3231 13.6274 43.4198 13.1924C43.5122 12.7898 43.5607 12.3785 43.5645 11.9654V4.94374H42.5674V6.12339H42.5359C42.1913 5.64402 41.7239 5.26698 41.1832 5.03197C40.9552 4.93406 40.7166 4.86322 40.4723 4.82074C40.25 4.78187 40.0249 4.76187 39.7992 4.76072C39.3049 4.75547 38.8147 4.85108 38.3585 5.04148C37.9316 5.22057 37.5462 5.48576 37.2261 5.82065C36.9053 6.15882 36.6512 6.55488 36.4774 6.98784C36.2942 7.44491 36.2022 7.93362 36.2068 8.42612C36.2024 8.92025 36.2998 9.40995 36.493 9.86456C36.6753 10.2947 36.9428 10.6832 37.2795 11.0065C37.6182 11.3292 38.0154 11.5841 38.4497 11.7573C38.9079 11.9403 39.3971 12.0325 39.8904 12.0285C40.3955 12.0267 40.8947 11.9193 41.3562 11.713C41.8402 11.4928 42.249 11.1354 42.5328 10.6847H42.5643V11.9465C42.5661 12.3121 42.5173 12.6762 42.4194 13.0284C42.3319 13.3568 42.1728 13.6617 41.9538 13.9211C41.721 14.1856 41.4289 14.391 41.1014 14.5205C40.6922 14.6773 40.2561 14.7524 39.8181 14.7413C39.2729 14.75 38.7335 14.6278 38.2451 14.3849C37.7968 14.1633 37.4066 13.8393 37.1065 13.4384L36.3767 14.2366ZM47.5941 7.92772C47.5946 7.63269 47.6647 7.34208 47.7985 7.07918C47.9351 6.80662 48.1194 6.56095 48.3428 6.35381C48.5745 6.13815 48.843 5.96628 49.1354 5.84591C49.4342 5.71995 49.7552 5.6555 50.0792 5.65665C50.3895 5.63828 50.7001 5.68486 50.9916 5.79342C51.283 5.90216 51.5485 6.07026 51.7715 6.28756C51.9738 6.50797 52.1304 6.76644 52.2324 7.04802C52.3345 7.32945 52.3798 7.62859 52.366 7.92772H47.5941ZM53.4512 8.74477V8.30312C53.4538 7.83719 53.3773 7.37422 53.2247 6.93421C53.0826 6.5206 52.8589 6.13979 52.5674 5.81442C52.2716 5.48839 51.9118 5.22746 51.5105 5.04788C51.0581 4.85075 50.5691 4.75284 50.0759 4.76072C49.5941 4.75695 49.1165 4.85239 48.6731 5.04148C48.2475 5.2227 47.8624 5.48773 47.5407 5.82065C47.2141 6.16029 46.9575 6.56127 46.7856 7.00046C46.6016 7.47262 46.5098 7.97594 46.5152 8.48302C46.5103 8.99077 46.6054 9.49458 46.7951 9.96558C46.9711 10.404 47.2296 10.8046 47.5564 11.1452C47.8836 11.4818 48.2767 11.747 48.7108 11.9244C49.173 12.1137 49.6681 12.2091 50.1673 12.2052C50.7321 12.2096 51.2913 12.0912 51.8061 11.8581C52.3567 11.5916 52.8356 11.1969 53.2028 10.7069L52.4321 10.076C52.2052 10.4236 51.9031 10.7159 51.5482 10.9307C51.1334 11.1861 50.6537 11.3155 50.1673 11.303C49.8301 11.3064 49.496 11.2399 49.1857 11.1074C48.5789 10.8472 48.0933 10.3659 47.8269 9.76042C47.6845 9.44439 47.5973 9.10622 47.5689 8.76051L53.4512 8.74477Z" fill="white"/>
<path d="M0.884277 30.9548H3.41962V19.9934H3.46062L10.5069 30.9548H13.728V16.6624H11.1894V27.2801H11.1517L4.23126 16.6624H0.884277V30.9548ZM17.7765 26.9173C18.1265 27.8018 18.6577 28.6031 19.3353 29.2691C20.0131 29.9352 20.8226 30.4515 21.7117 30.7846C22.6795 31.1503 23.7067 31.3322 24.7409 31.3209C25.7877 31.3202 26.8254 31.1256 27.8017 30.7467C28.6958 30.3974 29.5109 29.8719 30.1987 29.201C30.8786 28.5298 31.4141 27.7257 31.7714 26.8384C32.1532 25.8679 32.3402 24.8312 32.322 23.7882C32.3372 22.7247 32.146 21.6682 31.759 20.6779C31.4051 19.7833 30.8694 18.9722 30.1861 18.2963C29.503 17.6293 28.6858 17.1164 27.789 16.7916C26.808 16.4394 25.7704 16.2714 24.7283 16.2965C23.6941 16.2852 22.667 16.4669 21.6991 16.8326C20.8105 17.1697 20.0017 17.6885 19.3242 18.3562C18.641 19.036 18.1055 19.8501 17.7513 20.7473C17.3763 21.7444 17.1969 22.8049 17.2228 23.8702C17.2089 24.9131 17.4001 25.9486 17.7859 26.9173H17.7765ZM20.2237 21.7093C20.4479 21.1081 20.7866 20.5564 21.221 20.0849C21.6536 19.6177 22.1786 19.2461 22.7623 18.9935C23.3976 18.7226 24.0823 18.5883 24.7724 18.5992C25.4634 18.5901 26.1489 18.7242 26.7857 18.9935C27.3731 19.2444 27.9014 19.6162 28.3365 20.0849C28.7706 20.5566 29.1092 21.1083 29.3336 21.7093C29.5666 22.3466 29.6818 23.0212 29.6734 23.6998C29.6809 24.4217 29.5616 25.1392 29.3211 25.8195C29.102 26.4383 28.763 27.0075 28.3238 27.4946C27.8897 27.9689 27.3615 28.3472 26.7731 28.6049C26.1379 28.8806 25.4519 29.0182 24.7598 29.0087C24.0708 29.019 23.3876 28.8814 22.756 28.6049C22.1714 28.3454 21.6466 27.9674 21.2146 27.4946C20.7752 27.0077 20.4363 26.4384 20.2175 25.8195C19.9779 25.1391 19.8596 24.4214 19.8683 23.6998C19.8626 23.0172 19.9821 22.3393 20.2206 21.7L20.2237 21.7093ZM38.4277 30.9548H40.7618L44.0647 20.0723H44.1057L47.4212 30.9548H49.837L53.983 16.6624H51.4067L48.607 26.9583H48.5662L45.4205 16.6624H42.923L39.7174 26.9583H39.6766L36.9996 16.6624H34.2095L38.4277 30.9548Z" fill="#00C26F"/>
</g>
<defs>
<clipPath id="clip0_1_1657">
<rect width="54" height="32" fill="white"/>
</clipPath>
</defs>
</svg>
