<svg width="140" height="20" viewBox="0 0 140 20" fill="none" xmlns="http://www.w3.org/2000/svg">
<path fill-rule="evenodd" clip-rule="evenodd" d="M32.4994 0.700439L35.2075 5.39064L37.9156 10.0808H32.4994H27.0833L29.7913 5.39064L32.4994 0.700439Z" fill="#6D378D"/>
<path fill-rule="evenodd" clip-rule="evenodd" d="M10.8323 0.700439L8.12423 5.39064L5.41615 10.0808H10.8323H16.2485L13.5404 5.39064L10.8323 0.700439Z" fill="#5E8BEC"/>
<path fill-rule="evenodd" clip-rule="evenodd" d="M21.6671 0.700439L18.959 5.39064L16.2485 10.0808H21.6671H27.0833L24.3752 5.39064L21.6671 0.700439Z" fill="#564EC6"/>
<path fill-rule="evenodd" clip-rule="evenodd" d="M37.9156 10.0808L40.6237 5.39064L43.3317 0.700439H37.9156H32.4994L35.2075 5.39064L37.9156 10.0808Z" fill="#6B3FA0"/>
<path fill-rule="evenodd" clip-rule="evenodd" d="M5.41616 10.0808L2.70808 5.39064L0 0.700439H5.41616H10.8323L8.12424 5.39064L5.41616 10.0808Z" fill="#66B6FF"/>
<path fill-rule="evenodd" clip-rule="evenodd" d="M10.8323 19.4637L8.12423 14.7735L5.41615 10.0808H10.8323H16.2485L13.5404 14.7735L10.8323 19.4637Z" fill="#5667D9"/>
<path fill-rule="evenodd" clip-rule="evenodd" d="M21.6671 19.4637L18.959 14.7735L16.2485 10.0808H21.6671H27.0833L24.3752 14.7735L21.6671 19.4637Z" fill="#6146B3"/>
<path fill-rule="evenodd" clip-rule="evenodd" d="M32.4994 19.4637L35.2075 14.7735L37.9156 10.0808H32.4994H27.0833L29.7913 14.7735L32.4994 19.4637Z" fill="#6E2F7A"/>
<path fill-rule="evenodd" clip-rule="evenodd" d="M32.4994 0.700439L35.2075 5.39064L37.9156 10.0808H32.4994H27.0833L29.7913 5.39064L32.4994 0.700439Z" fill="#6D378D"/>
<path fill-rule="evenodd" clip-rule="evenodd" d="M10.8323 0.700439L8.12423 5.39064L5.41615 10.0808H10.8323H16.2485L13.5404 5.39064L10.8323 0.700439Z" fill="#5E8BEC"/>
<path fill-rule="evenodd" clip-rule="evenodd" d="M21.6671 0.700439L18.959 5.39064L16.2485 10.0808H21.6671H27.0833L24.3752 5.39064L21.6671 0.700439Z" fill="#564EC6"/>
<path fill-rule="evenodd" clip-rule="evenodd" d="M37.9156 10.0808L40.6237 5.39064L43.3317 0.700439H37.9156H32.4994L35.2075 5.39064L37.9156 10.0808Z" fill="#6B3FA0"/>
<path fill-rule="evenodd" clip-rule="evenodd" d="M5.41616 10.0808L2.70808 5.39064L0 0.700439H5.41616H10.8323L8.12424 5.39064L5.41616 10.0808Z" fill="#66B6FF"/>
<path fill-rule="evenodd" clip-rule="evenodd" d="M10.8323 19.4637L8.12423 14.7735L5.41615 10.0808H10.8323H16.2485L13.5404 14.7735L10.8323 19.4637Z" fill="#5667D9"/>
<path fill-rule="evenodd" clip-rule="evenodd" d="M21.6671 19.4637L18.959 14.7735L16.2485 10.0808H21.6671H27.0833L24.3752 14.7735L21.6671 19.4637Z" fill="#6146B3"/>
<path fill-rule="evenodd" clip-rule="evenodd" d="M32.4994 19.4637L35.2075 14.7735L37.9156 10.0808H32.4994H27.0833L29.7913 14.7735L32.4994 19.4637Z" fill="#6E2F7A"/>
<path d="M62.2784 16.2304H64.8477L65.8066 13.7726H71.3937L72.3352 16.2304H74.9045L70.1474 3.92139H67.1742L62.2784 16.2304ZM68.6633 6.44612L70.7619 11.897H66.4582L68.6633 6.44612Z" fill="white" fill-opacity="0.9"/>
<path d="M85.9896 16.2304V14.0253H79.6046V3.93384H77.0725V16.2304H85.9896Z" fill="white" fill-opacity="0.9"/>
<path d="M97.6197 16.2304V14.0253H91.2348V3.93384H88.7026V16.2304H97.6197Z" fill="white" fill-opacity="0.9"/>
<path d="M57.5758 3.93384H60.108V16.2304H57.8285L53.2349 10.7523L48.6414 16.2304H46.3619V3.93384H48.8941V12.234L53.2349 6.99622L53.453 7.27867L57.5758 12.234V3.93384Z" fill="white" fill-opacity="0.9"/>
<path d="M136.903 16.2304L132.609 11.1091H135.714L140 16.2304H136.903Z" fill="white" fill-opacity="0.9"/>
<path d="M126.522 16.2304V14.008H119.215V11.0398V8.8173V6.1563H126.522V3.93384H116.792V16.2304H126.522Z" fill="white" fill-opacity="0.9"/>
<path d="M129.235 16.2305H131.767V12.0185H134.643C137.066 12.0185 139.544 11.0274 139.544 8.02203V7.97496H136.903C136.903 9.18158 136.068 9.8109 134.921 9.8109H131.774V6.1514H134.921C136.075 6.1514 136.903 6.78073 136.903 7.98735H139.544V7.94275C139.544 4.92249 137.066 3.94629 134.643 3.94629H129.235V16.233V16.2305Z" fill="white" fill-opacity="0.9"/>
<path d="M125.436 8.97095H118.13V11.1959H125.436V8.97095Z" fill="white" fill-opacity="0.9"/>
<path d="M111.547 16.2329H114.079V3.93384H111.799L107.206 9.41194L102.612 3.93384H100.333V16.2329H102.865V7.9303L107.206 13.1705L107.421 12.8856L111.547 7.9303V16.2329Z" fill="white" fill-opacity="0.9"/>
</svg>
